<?xml version="1.0" standalone="no"?>
<!DOCTYPE svg PUBLIC "-//W3C//DTD SVG 20010904//EN"
 "http://www.w3.org/TR/2001/REC-SVG-20010904/DTD/svg10.dtd">
<svg version="1.0" xmlns="http://www.w3.org/2000/svg"
 width="1105.000000pt" height="1105.000000pt" viewBox="0 0 1105.000000 1105.000000"
 preserveAspectRatio="xMidYMid meet">

<g transform="translate(0.000000,1105.000000) scale(0.100000,-0.100000)"
fill="#000000" stroke="none">
<path d="M4904 9542 l-1091 -1007 -79 -137 c-43 -76 -82 -137 -85 -138 -3 0
-45 62 -94 138 l-88 139 -276 169 c-151 93 -431 264 -621 381 -190 117 -346
209 -348 205 -1 -4 95 -439 213 -965 118 -527 215 -962 215 -967 0 -5 -11 -17
-24 -25 -22 -15 -29 -13 -112 24 -70 30 -92 36 -104 27 -8 -6 -298 -251 -643
-544 -364 -308 -677 -565 -743 -610 -102 -69 -113 -80 -113 -107 0 -16 -26
-312 -57 -658 -32 -345 -55 -629 -53 -630 2 -2 447 -191 989 -420 542 -229
1064 -450 1160 -492 l175 -76 144 -205 143 -206 134 -1050 c73 -578 135 -1052
138 -1055 3 -3 265 175 583 395 318 220 581 397 584 394 3 -4 68 -190 144
-415 126 -372 140 -408 162 -413 14 -4 235 5 491 20 455 26 659 38 1504 91
l408 26 311 88 c352 100 312 101 340 -6 7 -29 16 -53 21 -53 5 0 160 49 346
109 185 61 708 230 1162 376 454 147 828 270 832 274 6 5 -583 1921 -1438
4679 -15 45 -20 52 -43 52 -14 0 -118 5 -231 10 -113 6 -497 23 -855 40 -357
16 -1000 46 -1428 65 l-778 36 -507 -115 c-459 -104 -781 -176 -789 -176 -2 0
-3 47 -3 105 l0 105 232 251 231 251 489 1417 c268 779 504 1460 523 1514 19
53 31 97 27 96 -4 0 -498 -454 -1098 -1007z m451 -579 c-235 -681 -439 -1271
-453 -1312 -25 -74 -25 -74 -425 -510 -219 -240 -414 -451 -432 -470 l-32 -33
-191 138 c-105 77 -190 142 -189 146 2 8 479 438 849 766 97 86 177 160 177
164 2 13 -52 69 -64 66 -11 -3 -294 -255 -912 -810 l-141 -128 -174 126 c-95
70 -177 130 -181 134 -5 4 150 281 345 615 l353 608 945 872 c520 480 947 871
948 869 2 -1 -188 -560 -423 -1241z m-2460 -193 c264 -161 482 -295 484 -296
2 -2 17 -132 33 -290 l29 -286 -171 -294 c-95 -162 -174 -294 -177 -294 -3 0
-55 36 -115 81 -61 44 -116 83 -123 86 -8 2 -35 -10 -60 -27 -26 -18 -48 -30
-51 -27 -5 5 -374 1642 -374 1659 0 6 10 4 23 -4 12 -8 238 -146 502 -308z
m655 -548 c22 -35 40 -65 40 -67 0 -9 -55 -95 -61 -95 -4 0 -10 42 -13 93 -4
50 -10 103 -13 117 -8 33 -2 26 47 -48z m-143 -1268 l558 -405 307 -328 306
-328 -88 -937 c-48 -515 -90 -939 -93 -942 -2 -3 -85 20 -183 51 -99 31 -294
93 -434 136 -140 44 -295 93 -345 109 -49 17 -537 169 -1084 340 -546 170
-995 311 -996 312 -2 2 -308 1057 -322 1109 -7 23 130 134 377 304 429 296
631 435 965 665 187 129 367 253 400 277 33 23 63 42 67 43 4 0 259 -183 565
-406z m-938 315 c17 -6 31 -14 31 -17 -1 -4 -65 -50 -143 -104 -78 -53 -189
-129 -247 -168 -58 -40 -98 -65 -90 -57 11 12 411 355 416 357 1 0 15 -5 33
-11z m4954 -343 c873 -40 1589 -75 1592 -78 3 -2 -252 -937 -566 -2076 l-571
-2072 136 -488 c75 -268 136 -492 136 -499 0 -7 -19 -17 -42 -24 -24 -6 -153
-42 -288 -81 -135 -38 -252 -70 -260 -71 -8 0 -634 241 -1391 538 -1332 521
-1376 539 -1388 569 -7 17 -80 227 -163 466 -121 352 -150 445 -150 490 0 30
48 567 107 1193 l107 1137 -86 91 -86 90 0 148 c0 81 -3 215 -6 297 l-7 150
374 83 c206 45 496 111 644 146 149 34 281 63 295 63 14 1 739 -32 1613 -72z
m-3015 -641 l-3 -59 -158 168 c-87 93 -157 172 -155 176 2 4 71 81 153 171
l150 163 8 -279 c4 -154 6 -307 5 -340z m5367 -1797 c375 -1212 682 -2204 681
-2205 -1 -1 -1438 -466 -2073 -670 -45 -15 -85 -25 -87 -22 -3 2 -75 253 -160
557 l-154 552 551 2000 c303 1100 553 1998 555 1995 2 -2 311 -995 687 -2207z
m-8640 872 c76 -261 139 -476 140 -478 2 -2 487 -154 1327 -416 l117 -37 140
-201 c78 -111 139 -203 138 -205 -3 -3 -2090 875 -2093 880 -1 2 83 924 85
936 3 13 21 -47 146 -479z m1980 -1055 c209 -65 210 -66 252 -113 22 -26 246
-276 495 -557 414 -464 453 -510 429 -513 -29 -3 -552 25 -556 30 -6 6 -822
1174 -839 1201 -13 20 -15 26 -5 22 8 -2 109 -34 224 -70z m910 -285 c198 -62
361 -114 363 -116 5 -3 -48 -575 -56 -608 -7 -28 -22 -13 -410 422 -221 249
-402 454 -402 456 0 4 21 -2 505 -154z m473 -866 c-3 -2 -20 2 -39 10 -32 13
-33 16 -31 62 2 27 5 63 9 79 5 27 9 21 36 -58 16 -49 27 -90 25 -93z m-869
-25 l53 -77 109 -7 c60 -4 109 -9 109 -11 0 -13 -284 -333 -290 -327 -6 6 -71
505 -70 537 0 11 20 -15 89 -115z m703 -112 c119 -7 219 -15 222 -18 3 -2 63
-176 135 -386 l129 -381 -526 -365 c-480 -333 -528 -363 -534 -344 -3 12 -35
250 -69 528 l-64 505 203 237 204 237 41 -1 c23 0 140 -6 259 -12z m1753
-1017 c649 -254 1191 -467 1205 -473 27 -11 -169 -25 -1295 -91 -330 -20 -643
-38 -695 -42 l-95 -5 -180 536 c-99 296 -181 543 -183 551 -3 11 2 11 30 0 18
-8 564 -222 1213 -476z"/>
</g>
</svg>
